<?xml version="1.0" encoding="UTF-8"?>
<svg id="_图层_1" xmlns="http://www.w3.org/2000/svg" version="1.1" viewBox="0 0 16 16">
  <!-- Generator: Adobe Illustrator 30.1.0, SVG Export Plug-In . SVG Version: 2.1.1 Build 136)  -->
  <defs>
    <style>
      .st0 {
        fill: #dcdddd;
      }
    </style>
  </defs>
  <g>
    <path class="st0" d="M4.1,5.9c-.4,0-.8.2-.8.7s.2.8.7.8c2.5.3,4.4,2.3,4.7,4.7,0,.4.4.7.8.7s.7-.4.7-.8c-.4-3.2-2.9-5.7-6-6h0Z"/>
    <path class="st0" d="M10.7,6.8c-1.3-1.7-3.3-3.2-6.5-3.6-.4,0-.8.2-.8.7s.2.8.7.8c2.7.3,4.4,1.6,5.4,3,1.1,1.4,1.5,3.1,1.7,4.2,0,.4.5.7.9.6.4,0,.7-.5.6-.9-.2-1.3-.7-3.2-2-4.9h0Z"/>
  </g>
  <path class="st0" d="M4.5,12.5c-.3,0-.5-.1-.7-.3-.4-.4-.4-1,0-1.4s.4-.3.7-.3.5.1.7.3c.4.4.4,1,0,1.4-.2.2-.4.3-.7.3Z"/>
  <path class="st0" d="M5.6,10.4c-.3-.3-.7-.4-1.1-.4s-.8.1-1.1.4c-.6.6-.6,1.5,0,2.1s1.5.6,2.1,0,.6-1.5,0-2.1h0Z"/>
  <path class="st0" d="M10.7,15.7h-5.4c-1.3,0-2.6-.5-3.5-1.5-.9-.8-1.5-2.1-1.5-3.5v-5.3c0-1.3.5-2.6,1.5-3.5C2.9.9,4.1.4,5.3.4h5.4c1.3,0,2.6.5,3.5,1.5.9.8,1.5,2.1,1.5,3.5v5.3c0,1.3-.5,2.6-1.5,3.5-1.1,1-2.3,1.5-3.5,1.5ZM5.3,1.6c-.9,0-1.9.4-2.7,1.1-.7.7-1.1,1.7-1.1,2.7v5.3c0,1,.4,2,1.1,2.7.8.7,1.7,1.1,2.7,1.1h5.4c.9,0,1.9-.4,2.7-1.1.7-.7,1.1-1.7,1.1-2.7v-5.3c0-1-.4-2-1.1-2.7-.8-.7-1.7-1.1-2.7-1.1h-5.4Z"/>
</svg>