<?xml version="1.0" encoding="utf-8"?>
<!-- Generator: Adobe Illustrator 26.4.1, SVG Export Plug-In . SVG Version: 6.00 Build 0)  -->
<svg version="1.1" id="图层_1" xmlns="http://www.w3.org/2000/svg" xmlns:xlink="http://www.w3.org/1999/xlink" x="0px" y="0px"
	 viewBox="0 0 200 200" style="enable-background:new 0 0 200 200;" xml:space="preserve">
<path d="M129.7,47.1h48.5v11.8h-48.5V47.1z M81.1,93.6c10.7-5.1,16.3-12.9,16.3-25C97.4,44.8,79.7,39,59.2,39H2.8v119.7h58
	c21.7,0,42.1-10.5,42.1-34.8C102.9,108.9,95.8,97.8,81.1,93.6z M29.1,59.4h24.7c9.5,0,18,2.6,18,13.7c0,10.2-6.6,14.2-16,14.2H29.1
	V59.4z M57.2,138.4H29v-33h28.7c11.6,0,18.9,4.8,18.9,17.1C76.6,134.6,67.9,138.4,57.2,138.4L57.2,138.4z M197.1,116.6
	c0-25.6-15-47-42.1-47c-26.4,0-44.3,19.9-44.3,45.9c0,27,17,45.5,44.3,45.5c20.7,0,34.1-9.3,40.5-29.2h-21
	c-2.3,7.4-11.6,11.3-18.8,11.3c-14,0-21.2-8.2-21.2-22.1H197C197,119.7,197.1,118.2,197.1,116.6L197.1,116.6z M134.5,106.1
	c0.8-11.4,8.4-18.5,19.7-18.5c12,0,17.9,7,19,18.5H134.5z"/>
</svg>
