<?xml version="1.0" encoding="utf-8"?>
<!-- Generator: Adobe Illustrator 26.4.1, SVG Export Plug-In . SVG Version: 6.00 Build 0)  -->
<svg version="1.1" id="图层_1" xmlns="http://www.w3.org/2000/svg" xmlns:xlink="http://www.w3.org/1999/xlink" x="0px" y="0px"
	 viewBox="0 0 220 220" style="enable-background:new 0 0 220 220;" xml:space="preserve">
<path d="M51.9,21.2c3.8-1.8,8.2-1.8,12.1,0c2.7,1.4,5.2,3.2,7.4,5.4l28.4,24.9h20.3l28.4-24.9c2.2-2.2,4.7-4,7.4-5.4
	c7.4-2.6,15.5,1.2,18.1,8.6c0.4,1,0.6,2.1,0.7,3.2c0.2,3.4-1,6.9-3.2,9.6c-2,2-4.1,3.9-6.2,5.7c-1.3,1.2-2.6,2.3-4,3.2h17.8
	c7.9,0.3,15.4,3.6,20.8,9.4c5.8,5.4,9.2,12.9,9.6,20.8v81.7c0.2,4.1,0,8.3-0.7,12.4c-1.9,8.3-7,15.4-14.2,19.8
	c-4.9,3-10.5,4.6-16.3,4.5H47.9c-4.2,0.2-8.6,0-12.8-0.7c-8.1-1.9-15.2-6.9-19.6-14.2c-3.2-4.9-4.9-10.5-4.9-16.3V88.1
	c-0.4-3.9-0.4-7.8,0-11.7C13.3,62.5,25,52.1,39.1,51h18.7c-3-2.2-5.5-4.7-8.2-6.9c-5.8-5.4-6.1-14.5-0.7-20.3
	C49.6,22.7,50.7,21.9,51.9,21.2 M48.6,76.3c-5.4,1-9.7,5-11.2,10.2c-0.3,1.8-0.3,3.6,0,5.4V159c-0.3,6.4,3.7,12.3,9.8,14.2
	c2,0.6,4.1,1,6.1,1h115.5c5.8,0.2,11.1-3.2,13.4-8.5c1.3-3,1.7-6.2,1.4-9.4V94c0.4-2.3,0.4-4.5,0-6.9c-1.3-4.6-4.8-8.2-9.2-9.6
	c-2.8-1-5.8-1.4-8.8-1.3H55.3C53.1,76.1,50.9,76.1,48.6,76.3L48.6,76.3z"/>
<path d="M71.9,98.5c7.7-0.5,14.3,5.4,14.8,13.2c0,0.2,0,0.5,0,0.6v14.2c0.2,7.8-6,14.2-13.7,14.3c-5,0.1-9.8-2.5-12.4-6.9
	c-1.4-3-2.1-6.3-1.8-9.6v-14.3c1-6.3,6-11.2,12.4-11.9L71.9,98.5z M145.3,98.5c7.8-0.5,14.6,5.3,15.1,13.2V126
	c0.3,3.2-0.5,6.5-2.2,9.4c-4.4,6.5-13.3,8.1-19.7,3.7c-1.4-1-2.7-2.3-3.7-3.7c-1.8-3.1-2.6-6.6-2.3-10.1v-14.2
	c0.7-6.5,5.9-11.7,12.4-12.5L145.3,98.5z"/>
</svg>
