<?xml version="1.0" encoding="utf-8"?>
<!-- Generator: Adobe Illustrator 26.4.1, SVG Export Plug-In . SVG Version: 6.00 Build 0)  -->
<svg version="1.1" id="图层_1" xmlns="http://www.w3.org/2000/svg" xmlns:xlink="http://www.w3.org/1999/xlink" x="0px" y="0px"
	 viewBox="0 0 200 200" style="enable-background:new 0 0 200 200;" xml:space="preserve">
<path d="M100,14c-47.5,0-86,38.5-86,86s38.5,86,86,86s86-38.5,86-86l0,0C186,52.5,147.5,14,100,14z M100,31.2
	c17.6,0,34.7,6.8,47.4,19.1c-13.2,7.7-27.1,14-41.5,18.7c-7.2-12.4-15.5-24.2-24.7-35.2C87.3,32.1,93.6,31.2,100,31.2z M64.7,41.1
	c9,10.3,17.1,21.4,24.2,33.1c-16.9,4.2-34.2,6.4-51.6,6.4h-3.1C39,64.1,49.9,49.9,64.7,41.1z M48.4,145.7
	c-11.2-12.6-17.3-28.8-17.2-45.7v-2.5H37c20.4-0.2,40.6-3.1,60.2-8.6c2.8,5.2,5.3,10.7,7.8,16.3c-13.4,4.7-25.9,11.7-36.9,20.7
	l-2.6,2.1C59.5,133.5,53.7,139.4,48.4,145.7z M100,168.8c-13.7,0-27.1-4-38.4-11.8c4.2-4.8,8.7-9.4,13.4-13.6l2.8-2.3
	c10.1-8.6,21.8-15.1,34.4-19.5c5.2,14,9.2,28.4,12,43C116.4,167.4,108.3,168.8,100,168.8z M139.8,156c-2.8-13-6.5-25.8-11-38.4h2.9
	c0.3-0.1,0.7-0.1,1,0h5.9c9,0,18.1,1.5,26.6,4.6C160.5,135.9,151.7,147.7,139.8,156z M138.7,100h-5.3c-1.1-0.2-2.2-0.2-3.4,0
	c-2.3,0.2-4.6,0.4-7,0.9h-0.9c-2.5-5.8-5.1-11.4-7.9-17.2c15.4-5.2,30.2-12.2,44.1-20.6c6.9,11.1,10.5,23.9,10.4,37v4.4
	C159.1,101.4,148.9,99.9,138.7,100z"/>
</svg>
