<?xml version="1.0" encoding="utf-8"?>
<!-- Generator: Adobe Illustrator 26.4.1, SVG Export Plug-In . SVG Version: 6.00 Build 0)  -->
<svg version="1.1" id="图层_1" xmlns="http://www.w3.org/2000/svg" xmlns:xlink="http://www.w3.org/1999/xlink" x="0px" y="0px"
	 viewBox="0 0 200 200" style="enable-background:new 0 0 200 200;" xml:space="preserve">
<g>
	<path d="M149.1,37.8c-7.2,0-13,5.8-13,13c0,7.2,5.8,13,13,13s13-5.8,13-13C162.2,43.7,156.3,37.8,149.1,37.8z"/>
	<path d="M100,50.8c-27.1,0-49.2,22.1-49.2,49.2c0,27.1,22.1,49.2,49.2,49.2s49.2-22.1,49.2-49.2C149.2,72.9,127.1,50.8,100,50.8z
		 M128.6,100c0,15.8-12.8,28.6-28.6,28.6S71.4,115.8,71.4,100c0-15.8,12.8-28.6,28.6-28.6S128.6,84.2,128.6,100z"/>
	<path d="M194,105.9c0-2,0-3.9,0-5.9l0-3.8c0-11.2,0-22.8-0.6-34.3c-0.6-12-2.9-27.4-15.4-39.9c-9.9-9.9-22.2-14.6-39.8-15.4
		C126.6,6,115,6,103.8,6L100,6l-3.8,0C85,6,73.4,6,61.9,6.7c-12,0.6-27.4,2.9-39.9,15.4C9.6,34.6,7.3,49.9,6.7,61.9
		C6,73.4,6,85,6,96.2l0,3.8l0,3.8c0,11.2,0,22.8,0.6,34.3c0.6,12,2.9,27.4,15.4,39.9c9.9,9.9,22.2,14.6,39.8,15.4
		C73.4,194,85,194,96.2,194l3.8,0l3.8,0c1.2,0,2.5,0,3.7,0c10.1,0,20.4-0.1,30.6-0.7c12-0.6,27.4-2.9,39.9-15.4
		c9.9-9.9,14.6-22.2,15.4-39.8C194,127.3,194,116.4,194,105.9z M173.6,106.3c0.1,13.9,0.3,37.1-3.7,47.3l0,0c-1.6,4-3.5,6.9-6.5,9.9
		c-3,3-5.8,4.9-9.9,6.5c-10.1,4-33.4,3.8-47.4,3.7c-2.3,0-4.4,0-6.2,0c-1.9,0-4.1,0-6.6,0c-14.7,0.1-37,0.4-46.9-3.6
		c-4-1.6-6.9-3.5-9.9-6.5c-3-3-4.9-5.8-6.5-9.9c-4-10-3.7-32.2-3.6-46.9c0-2.4,0-4.7,0-6.6c0-1.9,0-4.1,0-6.6
		c-0.1-14.7-0.4-37,3.6-46.9c1.6-4,3.5-6.9,6.5-9.9c3.2-3.1,6.1-5,10-6.6c8-3.1,23.7-3.7,37.1-3.7c3.5,0,6.8,0,9.8,0.1
		c2.4,0,4.7,0,6.6,0c1.9,0,4.1,0,6.6,0c14.7-0.1,37-0.4,46.9,3.6c4,1.6,6.9,3.5,9.9,6.5c3,3,4.9,5.8,6.5,9.9c4,10,3.7,32.2,3.6,46.9
		c0,2.4,0,4.7,0,6.6C173.5,101.9,173.5,104,173.6,106.3z"/>
</g>
</svg>
