<?xml version="1.0" encoding="utf-8"?>
<!-- Generator: Adobe Illustrator 21.1.0, SVG Export Plug-In . SVG Version: 6.00 Build 0)  -->
<svg version="1.1"
	 id="NexT" xmlns:cc="http://creativecommons.org/ns#" xmlns:dc="http://purl.org/dc/elements/1.1/" xmlns:rdf="http://www.w3.org/1999/02/22-rdf-syntax-ns#" xmlns:svg="http://www.w3.org/2000/svg"
	 xmlns="http://www.w3.org/2000/svg" xmlns:xlink="http://www.w3.org/1999/xlink" x="0px" y="0px" viewBox="0 0 512 512"
	 style="enable-background:new 0 0 512 512;" xml:space="preserve">
<style type="text/css">
	.st0{fill:#FEF200;}
	.st1{fill:#FFC40A;}
</style>
<g>
	<g>
		<path class="st0" d="M126.7,288.4c-1.4,32.1-4.1,91.8,25.8,108.3c32.9,18.2,53.5-8.5,75.2-36.8c16.4-21.4,33.4-43.5,56.2-43.5
			c0.7,0,6.6,1.5,8.5,2.6c4.9,2.8,7.6,7.7,7.6,13.6s-2.8,10.8-7.6,13.6c-2.6,1.5-5.6,2.2-8.6,2.2c-3.1,0-6.1-0.8-8.7-2.3
			c-4.7-2.8-7.4-7.7-7.4-13.5c0-0.8,0-1.5,0.1-2.3c-11.6,7.1-22.1,20.7-33,35c-1.6,2.1-3.3,4.3-4.9,6.4c18.1,31,49.7,44.5,84.5,36.2
			c18.4-4.4,35.7-14.7,48.6-28.9c11.7-12.8,19.1-28,21.9-44.4c-3.2-60.2-101.1-89.7-95-129.5c-2.2-8.6-1.7-18.5,2.5-30.3
			c0.8-2.3,3.4-3.6,5.7-2.7c2.3,0.8,3.6,3.4,2.7,5.7c-4.8,13.5-4,23.9,0.6,32.7c8.3-8.2,19.9-11.6,31.1-14.9
			c10.4-3,20.2-5.9,26.5-12.3c4.8-4.9,10.5-20.9,13.5-37.9c1.3-7.5,1.9-13.9,1.9-19.2c-8.5-6-29-6.9-51.9-1.3
			c-34.9,8.6-90.8,34.2-106.7,61.4c8.7,9.5,10.3,23,10.5,34.1c0.1,7.5-0.5,15.1-1,22.5c-1.2,15-2.3,29.2,4.3,31.1
			c2.2,0.6,7.3-4.8,11.1-8.8c5.2-5.5,11.1-11.7,18.2-14.6c2.3-0.9,4.9,0.2,5.9,2.5c0.9,2.3-0.2,4.9-2.5,5.9
			c-5.3,2.1-10.5,7.6-15.1,12.4c-6.5,6.9-12.6,13.4-20.1,11.3c-13.7-3.8-12.3-21.6-10.9-40.4c0.6-7.1,1.1-14.5,1-21.7
			c0-2.3-0.2-4.6-0.4-6.7c-34.3-43-68.2-9.6-84.5,28.1c-2.8,11.8-4.8,26.1-5.6,43.4L126.7,288.4z"/>
		<path class="st0" d="M288,338.4c2.1-1.2,3.1-3.1,3.1-5.8s-1-4.6-3.1-5.8c-1.2-0.7-2.7-1.1-4.1-1.1c-1.5,0-2.9,0.4-4.2,1.1
			c-2,1.2-3,3.1-2.9,5.7v0.1c0,2.6,1,4.5,2.9,5.7C282.1,339.8,285.5,339.9,288,338.4z"/>
	</g>
	<g>
		<circle cx="276.8" cy="248.3" r="6"/>
	</g>
	<g>
		<path class="st1" d="M291.8,332.7c0-10.2-15.9-10.2-15.8,0C275.9,342.9,291.8,342.9,291.8,332.7z"/>
	</g>
	<path d="M338.8,243.5c-12.9-8.5-24.6-16.1-32.2-25.2c6.7-7.6,17.3-10.7,28.5-13.9c11-3.2,22.4-6.5,30.4-14.6
		c7.6-7.8,13.3-27.8,15.9-42.7c5.3-30.6-0.8-40.9-3.7-43.9c-8.6-9-21.9-12.3-39.5-9.6c-47.8,7.3-117.5,57.6-134.2,84.5
		c-3.9-1.6-8.4-2.8-13.7-3.4c-14.8-1.7-27.8,2.2-38.5,11.3c-11.5,9.9-20.4,25.8-26.3,47.4c-5.3,19.3-7,38.7-7.6,51.6l-0.1,3
		c-1.5,34-4.4,97.4,30.4,116.6c9.1,5.1,17.5,7.2,25.2,7.2c20.4,0,36.4-15.2,50.6-32.5c10.3,16.3,24.3,28.2,40.8,34.6
		c9.4,3.6,19.5,5.5,29.9,5.5c7.2,0,14.5-0.9,21.9-2.6c20.2-4.8,39.1-16.1,53.2-31.6c15.3-16.8,24-37.3,25.3-59.3
		C397.4,282,366.3,261.5,338.8,243.5z M386,325.3c-1.1,19.9-9.1,38.5-22.9,53.8c-12.9,14.2-30.2,24.5-48.6,28.9
		c-34.8,8.3-66.4-5.2-84.5-36.2c1.7-2.1,3.3-4.3,4.9-6.4c10.9-14.3,21.5-28,33-35c-0.1,0.7-0.1,1.5-0.1,2.3
		c-0.1,5.8,2.6,10.7,7.4,13.5c2.6,1.5,5.7,2.3,8.7,2.3c3,0,6-0.7,8.6-2.2c4.9-2.8,7.6-7.7,7.6-13.6s-2.8-10.8-7.6-13.6
		c-2-1.1-5.8-2.6-8.5-2.6c-22.9-0.1-39.8,22.1-56.2,43.5c-21.7,28.3-42.3,55-75.2,36.8c-29.9-16.6-27.3-76.3-25.8-108.3l0.1-3
		c2.7-62.1,22.4-85.4,30.7-92.6c8.9-7.6,19.3-10.6,31.7-9.2c19.3,2.2,27.7,13.2,28.1,37c0.1,7.1-0.5,14.5-1,21.7
		c-1.5,18.8-2.8,36.6,10.9,40.4c7.4,2.1,13.6-4.4,20.1-11.3c4.6-4.8,9.7-10.3,15.1-12.4c2.3-0.9,3.4-3.5,2.5-5.9
		c-0.9-2.3-3.5-3.4-5.9-2.5c-7.2,2.9-13,9.1-18.2,14.6c-3.8,4-8.9,9.4-11.1,8.8c-6.6-1.8-5.5-16-4.3-31.1c0.6-7.4,1.2-15,1-22.5
		c-0.2-12.6-2.3-28.4-14.6-37.9c15.4-24.9,83-73.3,127.8-80.1c14.5-2.2,25.2,0.1,31.6,6.9c3.1,3.2,4.8,16,1.3,36.2
		c-2.9,17-8.6,33-13.5,37.9c-6.3,6.4-16.1,9.3-26.5,12.3c-11.2,3.3-22.8,6.7-31.1,14.9c-4.6-8.8-5.4-19.2-0.6-32.7
		c0.8-2.3-0.4-4.9-2.7-5.7c-2.3-0.8-4.9,0.4-5.7,2.7c-6.9,19.4-3.7,33.7,4.6,45.4c0.2,0.4,0.5,0.8,0.8,1.1
		c8.7,11.7,22.5,20.8,36.1,29.7C360.5,268.5,388.1,286.6,386,325.3z M276.8,332.6c0-2.6,1-4.5,2.9-5.7c1.2-0.7,2.7-1.1,4.2-1.1
		c1.5,0,2.9,0.4,4.1,1.1c2.1,1.2,3.1,3.1,3.1,5.8s-1,4.6-3.1,5.8c-2.5,1.4-5.9,1.4-8.3,0c-2-1.2-3-3.1-2.9-5.7V332.6z"/>
	<path class="st1" d="M300.4,179c-4.4,13-3.5,23,1,31.6c6.6-6.5,15.3-10,24.2-12.8C313.2,197.8,298.6,193.4,300.4,179z"/>
	<g>
		<path class="st1" d="M314.4,408c18.4-4.4,35.7-14.7,48.6-28.9c6.1-6.7,11-14,14.7-21.8c-21,25.3-43.9,33.2-76.9,31.4
			c-30.1-1.7-43.9-22.3-53.9-38.6c-4,4.8-8.1,10.1-12.2,15.4c-1.6,2.1-3.3,4.3-4.9,6.4C248,402.8,279.6,416.3,314.4,408z"/>
		<path class="st1" d="M152.5,396.8c32.9,18.2,53.5-8.5,75.2-36.8c1-1.3,2-2.6,3-3.9c-13.8,11.7-37,26.8-59.2,21
			c-22.7-5.9-38-32-45.3-47.3C127.5,357.4,133.2,386.1,152.5,396.8z"/>
	</g>
</g>
</svg>
