<?xml version="1.0" encoding="utf-8"?>
<!-- Generator: Adobe Illustrator 26.2.1, SVG Export Plug-In . SVG Version: 6.00 Build 0)  -->
<svg version="1.1"
	 id="NexT" xmlns:cc="http://creativecommons.org/ns#" xmlns:dc="http://purl.org/dc/elements/1.1/" xmlns:rdf="http://www.w3.org/1999/02/22-rdf-syntax-ns#" xmlns:svg="http://www.w3.org/2000/svg"
	 xmlns="http://www.w3.org/2000/svg" xmlns:xlink="http://www.w3.org/1999/xlink" x="0px" y="0px" viewBox="0 0 512 512"
	 style="enable-background:new 0 0 512 512;" xml:space="preserve">
<g>
	<path d="M93.2,317.3c0.8-32.5,2-65,12.3-96.4c4.3-13.2,10-25.7,18.7-36.6c16.2-20.4,39.8-27.7,64.7-20.2c2,0.6,3.9,2.3,5.9-0.6
		c13.1-18.6,30.7-32.5,48.9-45.6c27.1-19.5,55.8-36.3,88.2-45.8c13.5-4,27.3-6.1,41.4-3.1c17.6,3.8,25.4,12.8,26,30.6
		c0.9,24.1-3.9,47.2-13.6,69.2c-5,11.5-14.6,18-25.9,22c-8.6,3.1-17.5,5.5-26.2,8.3c-6.8,2.2-13.2,5-18.9,9.5
		c-2.8,2.2-3.2,3.9-0.4,6.7c9.9,9.8,21.4,17.3,32.9,24.9c10.7,7.1,21.5,14,31.3,22.3c31.8,26.5,41.6,59,29.6,98.7
		c-14.3,47.2-62.1,82.7-111.1,82c-32.7-0.5-58.6-14.4-77.4-41c-3-4.2-4.2-4.3-7.4-0.3c-6.8,8.3-14.4,15.8-23.2,22.2
		c-30.7,22.3-67.5,5.1-80.3-18.3c-9.3-17-12.7-35.5-14.4-54.5C93.2,339.9,92.9,328.6,93.2,317.3z M265.8,342.6
		c-2.5,0.3-4,2.2-5.7,3.6c-13.1,10.6-22.2,24.7-32.8,37.5c-3,3.7-3,6.2-0.4,10c20.6,29.4,48.6,42.8,84.2,37.1
		c41.3-6.6,70.3-30.1,85.3-69.1c13.7-35.7,5.6-64.7-23.1-89.8c-7.5-6.6-15.7-12.2-24-17.7c-12.4-8.3-25.2-16.1-36.5-25.9
		c-19-16.5-27.4-36.3-20-61.4c2.1-7.2,4.7-9.8,8.7-8c5.6,2.4,3.3,6.9,2.2,10.9c-2.5,9.4-3.6,18.7-0.1,28.2c1.1,3.1,2.2,4,5.1,1.6
		c6.9-5.7,15.1-8.9,23.6-11.3c6.1-1.7,12-3.8,18.1-5.4c15.6-4.1,25.3-13.7,29.9-29.3c4.9-16.4,8-33,8.7-50.1
		c0.6-15.7-7.4-24.1-23.2-25.1c-9.6-0.6-19.1,0.5-28.4,3.1c-33.1,9.3-62.1,26.5-89.7,46.5c-15.7,11.4-30.4,23.8-42.7,39
		c-2.4,3-2.7,4.9,0.6,7.3c4.1,2.8,6.3,7.1,8.3,11.5c4.3,9.2,5.2,19.1,5.4,29.1c0.4,16.1-2.6,32-2.1,48.1c0.1,2.9,0.4,5.8,1.4,8.4
		c1.8,4.6,4.5,5.4,8.2,2.2c3.5-3,6.6-6.4,9.8-9.7c5.5-5.6,11.1-11.1,18.3-14.5c3.3-1.5,6.3-1.2,7.9,2c1.7,3.3,0.8,6.3-3,8
		c-4.4,2-7.9,5.3-11.4,8.6c-5,5-9.8,10.3-15.3,14.7c-9.6,7.7-21.2,4-25.2-7.6c-2.1-5.9-2.2-12-2-18.1c0.5-17,2.7-34,1.7-51
		c-0.8-12.6-4.7-24.2-17.2-29.7c-16.7-7.4-33.2-6.4-48.3,4.8c-10.1,7.5-16.6,17.9-21.6,29.3c-8,18.4-12.3,37.7-14,57.7
		c-2.9,32.8-4.7,65.6,0.5,98.4c2.2,14.1,6,27.7,14.8,39.3c14.2,18.6,39.4,23,59,10.3c6.6-4.3,12.4-9.7,17.7-15.5
		c13.9-15.1,25.3-32.2,38.8-47.6c8.4-9.5,17.1-18.7,28.9-24c8.3-3.8,16.8-6.3,26-2.6c7.9,3.1,11.8,9.4,11.5,18.6
		c-0.3,8-5.1,14.2-12.8,16.4C277.9,365,267.8,357.6,265.8,342.6z M285.3,336.1c-4.3-0.1-8.1,3.1-7.9,7.1c0.2,4.4,2.6,6.9,7.2,7.2
		c4.7,0.2,7.9-2.4,8.1-6.7C292.8,339.4,289.8,336.3,285.3,336.1z"/>
	<path d="M276.8,239c4.3,0.5,7.1,2.6,7.4,7.2c0.2,4.3-3.1,8-7.4,7.6c-4.3-0.4-7-2.8-7.1-7.4C269.7,241.8,272.5,239.7,276.8,239z"/>
</g>
</svg>
